<svg width="20" height="21" viewBox="0 0 20 21" fill="none" xmlns="http://www.w3.org/2000/svg">
<path id="Shape 53" d="M10.0073 0.813903C9.99247 0.607606 9.68964 0.607605 9.67481 0.813901L9.18261 7.66427L7.93774 5.17937C7.8451 4.99445 7.56532 5.11034 7.63057 5.3066L8.63059 8.31445L3.10933 3.53342C2.95298 3.39802 2.73884 3.61216 2.87423 3.76851L7.45608 9.05974L4.77036 8.16682C4.57409 8.10157 4.45821 8.38135 4.64313 8.47399L7.32722 9.81865L0.154723 10.334C-0.0515734 10.3488 -0.0515749 10.6516 0.154722 10.6665L7.31407 11.1809L4.64312 12.5189C4.4582 12.6116 4.57409 12.8914 4.77036 12.8261L7.46523 11.9302L2.87424 17.2319C2.73884 17.3883 2.95298 17.6024 3.10933 17.467L8.62707 12.6891L7.63058 15.6863C7.56532 15.8826 7.8451 15.9985 7.93774 15.8136L9.18214 13.3296L9.67481 20.1866C9.68964 20.3929 9.99247 20.3929 10.0073 20.1866L10.5299 12.9135L11.9827 15.8136C12.0753 15.9985 12.3551 15.8826 12.2899 15.6863L11.3897 12.9789L16.5728 17.467C16.7291 17.6024 16.9433 17.3883 16.8079 17.232L12.1205 11.8189L15.1501 12.8261C15.3463 12.8914 15.4622 12.6116 15.2773 12.5189L12.5765 11.1659L19.5274 10.6665C19.7337 10.6516 19.7337 10.3488 19.5274 10.334L12.5633 9.83362L15.2773 8.47399C15.4622 8.38135 15.3464 8.10157 15.1501 8.16682L12.1297 9.17101L16.8079 3.76851C16.9433 3.61216 16.7291 3.39802 16.5728 3.53342L11.3862 8.02462L12.2899 5.3066C12.3551 5.11034 12.0753 4.99445 11.9827 5.17937L10.5294 8.08035L10.0073 0.813903Z" fill="#C7D0FF"/>
</svg>
