<svg width="24" height="24" viewBox="0 0 24 24" fill="none" xmlns="http://www.w3.org/2000/svg">
<g id="Shape 20">
<path d="M8.66667 18C8.66667 19.841 10.159 21.3333 12 21.3333C13.8409 21.3333 15.3333 19.841 15.3333 18H18C18 21.3137 15.3137 24 12 24C8.68629 24 6 21.3137 6 18H8.66667Z" fill="#3FEDC2"/>
<path d="M8.66667 8.66667V6H15.3333V8.66667H8.66667Z" fill="#3FEDC2"/>
<path fill-rule="evenodd" clip-rule="evenodd" d="M8.66667 15.3333V18H15.3333V15.3333H18V18C21.3137 18 24 15.3137 24 12C24 8.68629 21.3137 6 18 6C18 2.68629 15.3137 0 12 0C8.68629 0 6 2.68629 6 6C2.68629 6 0 8.68629 0 12C0 15.3137 2.68629 18 6 18L6 15.3333H8.66667ZM8.66667 8.66667L8.66667 15.3333H15.3333L15.3333 8.66667H18V15.3333C19.841 15.3333 21.3333 13.841 21.3333 12C21.3333 10.1591 19.841 8.66667 18 8.66667V6H15.3333C15.3333 4.15905 13.8409 2.66667 12 2.66667C10.1591 2.66667 8.66667 4.15905 8.66667 6H6V8.66667C4.15905 8.66667 2.66667 10.1591 2.66667 12C2.66667 13.841 4.15905 15.3333 6 15.3333V8.66667H8.66667Z" fill="#3FEDC2"/>
</g>
</svg>
