<svg width="14" height="24" viewBox="0 0 14 24" fill="none" xmlns="http://www.w3.org/2000/svg">
<path id="Shape 30" d="M7.33341 24C4.91675 24 2.88897 21.93 2.88897 19.41C2.88897 17.13 4.58341 15.12 6.80564 14.85V14.64C6.80564 13.2 6.16675 11.91 3.7223 10.32C1.27786 8.73 0.666748 7.41 0.666748 5.28C0.666748 2.01 3.16675 0 7.33341 0C11.5279 0 14.0001 2.01 14.0001 5.28C14.0001 7.44 13.3612 8.82 10.9723 10.38C8.55564 11.97 7.88897 13.32 7.88897 14.64V14.85C10.1112 15.12 11.7779 17.13 11.7779 19.41C11.7779 21.96 9.77786 24 7.33341 24Z" fill="#3FEDC1"/>
</svg>
