<svg width="18" height="18" viewBox="0 0 18 18" fill="none" xmlns="http://www.w3.org/2000/svg">
<path id="Shape 8" d="M8.17077 0.887908C8.24505 0.305604 9.08844 0.305606 9.16273 0.88791L9.97544 7.2586C10.0043 7.48457 10.1822 7.66248 10.4081 7.69131L16.7788 8.50402C17.3611 8.5783 17.3611 9.4217 16.7788 9.49598L10.4081 10.3087C10.1822 10.3375 10.0043 10.5154 9.97544 10.7414L9.16273 17.1121C9.08844 17.6944 8.24505 17.6944 8.17077 17.1121L7.35806 10.7414C7.32923 10.5154 7.15132 10.3375 6.92535 10.3087L0.554656 9.49598C-0.0276477 9.4217 -0.0276458 8.5783 0.554658 8.50402L6.92535 7.69131C7.15132 7.66248 7.32923 7.48457 7.35806 7.2586L8.17077 0.887908Z" fill="#FFFD80"/>
</svg>
